<svg xmlns="http://www.w3.org/2000/svg" viewBox="0 0 740.00 320.00">
  <style>
    .key-bg { fill: #f5f5f5; stroke: #d4d4d4; stroke-width: 1; }
    .key-index { fill: #171717; font-family: ui-monospace, SFMono-Regular, "SF Mono", Menlo, Consolas, "Liberation Mono", monospace; font-weight: 700; text-anchor: middle; dominant-baseline: central; }
    .key-part { font-family: system-ui, -apple-system, BlinkMacSystemFont, "Segoe UI", Roboto, sans-serif; text-anchor: middle; dominant-baseline: central; }
    @media (prefers-color-scheme: dark) {
      .key-bg { fill: #2a2a2a; stroke: #404040; }
      .key-index { fill: #e5e5e5; }
    }
  </style>
  <g>
    <path class="key-bg" d="M 26.00,22.00 L 84.00,22.00 Q 88.00,22.00 88.00,26.00 L 88.00,84.00 Q 88.00,88.00 84.00,88.00 L 26.00,88.00 Q 22.00,88.00 22.00,84.00 L 22.00,26.00 Q 22.00,22.00 26.00,22.00 Z" />
    <path class="key-bg" d="M 96.00,22.00 L 154.00,22.00 Q 158.00,22.00 158.00,26.00 L 158.00,84.00 Q 158.00,88.00 154.00,88.00 L 96.00,88.00 Q 92.00,88.00 92.00,84.00 L 92.00,26.00 Q 92.00,22.00 96.00,22.00 Z" />
    <path class="key-bg" d="M 166.00,22.00 L 224.00,22.00 Q 228.00,22.00 228.00,26.00 L 228.00,84.00 Q 228.00,88.00 224.00,88.00 L 166.00,88.00 Q 162.00,88.00 162.00,84.00 L 162.00,26.00 Q 162.00,22.00 166.00,22.00 Z" />
    <path class="key-bg" d="M 236.00,22.00 L 294.00,22.00 Q 298.00,22.00 298.00,26.00 L 298.00,84.00 Q 298.00,88.00 294.00,88.00 L 236.00,88.00 Q 232.00,88.00 232.00,84.00 L 232.00,26.00 Q 232.00,22.00 236.00,22.00 Z" />
    <path class="key-bg" d="M 306.00,22.00 L 364.00,22.00 Q 368.00,22.00 368.00,26.00 L 368.00,84.00 Q 368.00,88.00 364.00,88.00 L 306.00,88.00 Q 302.00,88.00 302.00,84.00 L 302.00,26.00 Q 302.00,22.00 306.00,22.00 Z" />
    <path class="key-bg" d="M 376.00,22.00 L 434.00,22.00 Q 438.00,22.00 438.00,26.00 L 438.00,84.00 Q 438.00,88.00 434.00,88.00 L 376.00,88.00 Q 372.00,88.00 372.00,84.00 L 372.00,26.00 Q 372.00,22.00 376.00,22.00 Z" />
    <path class="key-bg" d="M 446.00,22.00 L 504.00,22.00 Q 508.00,22.00 508.00,26.00 L 508.00,84.00 Q 508.00,88.00 504.00,88.00 L 446.00,88.00 Q 442.00,88.00 442.00,84.00 L 442.00,26.00 Q 442.00,22.00 446.00,22.00 Z" />
    <path class="key-bg" d="M 516.00,22.00 L 574.00,22.00 Q 578.00,22.00 578.00,26.00 L 578.00,84.00 Q 578.00,88.00 574.00,88.00 L 516.00,88.00 Q 512.00,88.00 512.00,84.00 L 512.00,26.00 Q 512.00,22.00 516.00,22.00 Z" />
    <path class="key-bg" d="M 586.00,22.00 L 644.00,22.00 Q 648.00,22.00 648.00,26.00 L 648.00,84.00 Q 648.00,88.00 644.00,88.00 L 586.00,88.00 Q 582.00,88.00 582.00,84.00 L 582.00,26.00 Q 582.00,22.00 586.00,22.00 Z" />
    <path class="key-bg" d="M 656.00,22.00 L 714.00,22.00 Q 718.00,22.00 718.00,26.00 L 718.00,84.00 Q 718.00,88.00 714.00,88.00 L 656.00,88.00 Q 652.00,88.00 652.00,84.00 L 652.00,26.00 Q 652.00,22.00 656.00,22.00 Z" />
    <path class="key-bg" d="M 61.00,92.00 L 119.00,92.00 Q 123.00,92.00 123.00,96.00 L 123.00,154.00 Q 123.00,158.00 119.00,158.00 L 61.00,158.00 Q 57.00,158.00 57.00,154.00 L 57.00,96.00 Q 57.00,92.00 61.00,92.00 Z" />
    <path class="key-bg" d="M 131.00,92.00 L 189.00,92.00 Q 193.00,92.00 193.00,96.00 L 193.00,154.00 Q 193.00,158.00 189.00,158.00 L 131.00,158.00 Q 127.00,158.00 127.00,154.00 L 127.00,96.00 Q 127.00,92.00 131.00,92.00 Z" />
    <path class="key-bg" d="M 201.00,92.00 L 259.00,92.00 Q 263.00,92.00 263.00,96.00 L 263.00,154.00 Q 263.00,158.00 259.00,158.00 L 201.00,158.00 Q 197.00,158.00 197.00,154.00 L 197.00,96.00 Q 197.00,92.00 201.00,92.00 Z" />
    <path class="key-bg" d="M 271.00,92.00 L 329.00,92.00 Q 333.00,92.00 333.00,96.00 L 333.00,154.00 Q 333.00,158.00 329.00,158.00 L 271.00,158.00 Q 267.00,158.00 267.00,154.00 L 267.00,96.00 Q 267.00,92.00 271.00,92.00 Z" />
    <path class="key-bg" d="M 341.00,92.00 L 399.00,92.00 Q 403.00,92.00 403.00,96.00 L 403.00,154.00 Q 403.00,158.00 399.00,158.00 L 341.00,158.00 Q 337.00,158.00 337.00,154.00 L 337.00,96.00 Q 337.00,92.00 341.00,92.00 Z" />
    <path class="key-bg" d="M 411.00,92.00 L 469.00,92.00 Q 473.00,92.00 473.00,96.00 L 473.00,154.00 Q 473.00,158.00 469.00,158.00 L 411.00,158.00 Q 407.00,158.00 407.00,154.00 L 407.00,96.00 Q 407.00,92.00 411.00,92.00 Z" />
    <path class="key-bg" d="M 481.00,92.00 L 539.00,92.00 Q 543.00,92.00 543.00,96.00 L 543.00,154.00 Q 543.00,158.00 539.00,158.00 L 481.00,158.00 Q 477.00,158.00 477.00,154.00 L 477.00,96.00 Q 477.00,92.00 481.00,92.00 Z" />
    <path class="key-bg" d="M 551.00,92.00 L 609.00,92.00 Q 613.00,92.00 613.00,96.00 L 613.00,154.00 Q 613.00,158.00 609.00,158.00 L 551.00,158.00 Q 547.00,158.00 547.00,154.00 L 547.00,96.00 Q 547.00,92.00 551.00,92.00 Z" />
    <path class="key-bg" d="M 621.00,92.00 L 679.00,92.00 Q 683.00,92.00 683.00,96.00 L 683.00,154.00 Q 683.00,158.00 679.00,158.00 L 621.00,158.00 Q 617.00,158.00 617.00,154.00 L 617.00,96.00 Q 617.00,92.00 621.00,92.00 Z" />
    <path class="key-bg" d="M 26.00,162.00 L 119.00,162.00 Q 123.00,162.00 123.00,166.00 L 123.00,224.00 Q 123.00,228.00 119.00,228.00 L 26.00,228.00 Q 22.00,228.00 22.00,224.00 L 22.00,166.00 Q 22.00,162.00 26.00,162.00 Z" />
    <path class="key-bg" d="M 131.00,162.00 L 189.00,162.00 Q 193.00,162.00 193.00,166.00 L 193.00,224.00 Q 193.00,228.00 189.00,228.00 L 131.00,228.00 Q 127.00,228.00 127.00,224.00 L 127.00,166.00 Q 127.00,162.00 131.00,162.00 Z" />
    <path class="key-bg" d="M 201.00,162.00 L 259.00,162.00 Q 263.00,162.00 263.00,166.00 L 263.00,224.00 Q 263.00,228.00 259.00,228.00 L 201.00,228.00 Q 197.00,228.00 197.00,224.00 L 197.00,166.00 Q 197.00,162.00 201.00,162.00 Z" />
    <path class="key-bg" d="M 271.00,162.00 L 329.00,162.00 Q 333.00,162.00 333.00,166.00 L 333.00,224.00 Q 333.00,228.00 329.00,228.00 L 271.00,228.00 Q 267.00,228.00 267.00,224.00 L 267.00,166.00 Q 267.00,162.00 271.00,162.00 Z" />
    <path class="key-bg" d="M 341.00,162.00 L 399.00,162.00 Q 403.00,162.00 403.00,166.00 L 403.00,224.00 Q 403.00,228.00 399.00,228.00 L 341.00,228.00 Q 337.00,228.00 337.00,224.00 L 337.00,166.00 Q 337.00,162.00 341.00,162.00 Z" />
    <path class="key-bg" d="M 411.00,162.00 L 469.00,162.00 Q 473.00,162.00 473.00,166.00 L 473.00,224.00 Q 473.00,228.00 469.00,228.00 L 411.00,228.00 Q 407.00,228.00 407.00,224.00 L 407.00,166.00 Q 407.00,162.00 411.00,162.00 Z" />
    <path class="key-bg" d="M 481.00,162.00 L 539.00,162.00 Q 543.00,162.00 543.00,166.00 L 543.00,224.00 Q 543.00,228.00 539.00,228.00 L 481.00,228.00 Q 477.00,228.00 477.00,224.00 L 477.00,166.00 Q 477.00,162.00 481.00,162.00 Z" />
    <path class="key-bg" d="M 551.00,162.00 L 609.00,162.00 Q 613.00,162.00 613.00,166.00 L 613.00,224.00 Q 613.00,228.00 609.00,228.00 L 551.00,228.00 Q 547.00,228.00 547.00,224.00 L 547.00,166.00 Q 547.00,162.00 551.00,162.00 Z" />
    <path class="key-bg" d="M 621.00,162.00 L 714.00,162.00 Q 718.00,162.00 718.00,166.00 L 718.00,224.00 Q 718.00,228.00 714.00,228.00 L 621.00,228.00 Q 617.00,228.00 617.00,224.00 L 617.00,166.00 Q 617.00,162.00 621.00,162.00 Z" />
    <path class="key-bg" d="M 61.00,232.00 L 154.00,232.00 Q 158.00,232.00 158.00,236.00 L 158.00,294.00 Q 158.00,298.00 154.00,298.00 L 61.00,298.00 Q 57.00,298.00 57.00,294.00 L 57.00,236.00 Q 57.00,232.00 61.00,232.00 Z" />
    <path class="key-bg" d="M 166.00,232.00 L 224.00,232.00 Q 228.00,232.00 228.00,236.00 L 228.00,294.00 Q 228.00,298.00 224.00,298.00 L 166.00,298.00 Q 162.00,298.00 162.00,294.00 L 162.00,236.00 Q 162.00,232.00 166.00,232.00 Z" />
    <path class="key-bg" d="M 236.00,232.00 L 504.00,232.00 Q 508.00,232.00 508.00,236.00 L 508.00,294.00 Q 508.00,298.00 504.00,298.00 L 236.00,298.00 Q 232.00,298.00 232.00,294.00 L 232.00,236.00 Q 232.00,232.00 236.00,232.00 Z" />
    <path class="key-bg" d="M 516.00,232.00 L 574.00,232.00 Q 578.00,232.00 578.00,236.00 L 578.00,294.00 Q 578.00,298.00 574.00,298.00 L 516.00,298.00 Q 512.00,298.00 512.00,294.00 L 512.00,236.00 Q 512.00,232.00 516.00,232.00 Z" />
    <path class="key-bg" d="M 586.00,232.00 L 679.00,232.00 Q 683.00,232.00 683.00,236.00 L 683.00,294.00 Q 683.00,298.00 679.00,298.00 L 586.00,298.00 Q 582.00,298.00 582.00,294.00 L 582.00,236.00 Q 582.00,232.00 586.00,232.00 Z" />
  </g>
  <g>
    <text class="key-index" x="55.00" y="55.00" font-size="36">0</text>
    <text class="key-index" x="125.00" y="55.00" font-size="36">1</text>
    <text class="key-index" x="195.00" y="55.00" font-size="36">2</text>
    <text class="key-index" x="265.00" y="55.00" font-size="36">3</text>
    <text class="key-index" x="335.00" y="55.00" font-size="36">4</text>
    <text class="key-index" x="405.00" y="55.00" font-size="36">5</text>
    <text class="key-index" x="475.00" y="55.00" font-size="36">6</text>
    <text class="key-index" x="545.00" y="55.00" font-size="36">7</text>
    <text class="key-index" x="615.00" y="55.00" font-size="36">8</text>
    <text class="key-index" x="685.00" y="55.00" font-size="36">9</text>
    <text class="key-index" x="90.00" y="125.00" font-size="36">10</text>
    <text class="key-index" x="160.00" y="125.00" font-size="36">11</text>
    <text class="key-index" x="230.00" y="125.00" font-size="36">12</text>
    <text class="key-index" x="300.00" y="125.00" font-size="36">13</text>
    <text class="key-index" x="370.00" y="125.00" font-size="36">14</text>
    <text class="key-index" x="440.00" y="125.00" font-size="36">15</text>
    <text class="key-index" x="510.00" y="125.00" font-size="36">16</text>
    <text class="key-index" x="580.00" y="125.00" font-size="36">17</text>
    <text class="key-index" x="650.00" y="125.00" font-size="36">18</text>
    <text class="key-index" x="72.50" y="195.00" font-size="36">19</text>
    <text class="key-index" x="160.00" y="195.00" font-size="36">20</text>
    <text class="key-index" x="230.00" y="195.00" font-size="36">21</text>
    <text class="key-index" x="300.00" y="195.00" font-size="36">22</text>
    <text class="key-index" x="370.00" y="195.00" font-size="36">23</text>
    <text class="key-index" x="440.00" y="195.00" font-size="36">24</text>
    <text class="key-index" x="510.00" y="195.00" font-size="36">25</text>
    <text class="key-index" x="580.00" y="195.00" font-size="36">26</text>
    <text class="key-index" x="667.50" y="195.00" font-size="36">27</text>
    <text class="key-index" x="107.50" y="265.00" font-size="36">28</text>
    <text class="key-index" x="195.00" y="265.00" font-size="36">29</text>
    <text class="key-index" x="370.00" y="265.00" font-size="36">30</text>
    <text class="key-index" x="545.00" y="265.00" font-size="36">31</text>
    <text class="key-index" x="632.50" y="265.00" font-size="36">32</text>
  </g>
</svg>
